999
DXF generated by OpenJsCad
  0
SECTION
  2
HEADER
  0
ENDSEC
  0
SECTION
  2
TABLES
  0
TABLE
  2
LTYPE
  70
1
  0
LTYPE
  2
CONTINUOUS
  3
Solid Line
  72
65
  73
0
  40
0.0
  0
ENDTAB
  0
TABLE
  2
LAYER
  70
1
  0
LAYER
  2
OpenJsCad
  62
7
  6
continuous
  0
ENDTAB
  0
TABLE
  2
STYLE
  70
0
  0
ENDTAB
  0
TABLE
  2
VIEW
  70
0
  0
ENDTAB
  0
ENDSEC
  0
SECTION
  2
BLOCKS
  0
ENDSEC
  0
SECTION
  2
ENTITIES
  0
LWPOLYLINE
  8
OpenJsCad
  90
5
  70
1
 10
-72.5
 20
267.5
 30
0.0
 10
-72.5
 20
-267.5
 30
0.0
 10
72.5
 20
-267.5
 30
0.0
 10
72.5
 20
267.5
 30
0.0
 10
-72.5
 20
267.5
 30
0.0
  0
LWPOLYLINE
  8
OpenJsCad
  90
69
  70
1
 10
-26.5
 20
103.5
 30
0.0
 10
-26.5
 20
226.5
 30
0.0
 10
-26.427770900082955
 20
227.9702571049434
 30
0.0
 10
-26.211779206048455
 20
229.4263548302419
 30
0.0
 10
-25.85410503598313
 20
230.85427015881692
 30
0.0
 10
-25.358192987669298
 20
232.24025148547634
 30
0.0
 10
-24.728818965225322
 20
233.57095105238994
 30
0.0
 10
-23.972044184538177
 20
234.83355349529404
 30
0.0
 10
-23.095156800441053
 20
236.0158992624547
 30
0.0
 10
-22.106601717798213
 20
237.10660171779818
 30
0.0
 10
-21.01589926245468
 20
238.09515680044103
 30
0.0
 10
-19.833553495294034
 20
238.97204418453816
 30
0.0
 10
-18.570951052389958
 20
239.72881896522534
 30
0.0
 10
-17.24025148547635
 20
240.35819298766933
 30
0.0
 10
-15.854270158816938
 20
240.85410503598314
 30
0.0
 10
-14.42635483024192
 20
241.21177920604845
 30
0.0
 10
-12.970257104943407
 20
241.42777090008298
 30
0.0
 10
-11.5
 20
241.5
 30
0.0
 10
11.5
 20
241.5
 30
0.0
 10
12.970257104943414
 20
241.42777090008298
 30
0.0
 10
14.42635483024192
 20
241.21177920604845
 30
0.0
 10
15.85427015881693
 20
240.85410503598314
 30
0.0
 10
17.24025148547635
 20
240.35819298766933
 30
0.0
 10
18.570951052389958
 20
239.72881896522534
 30
0.0
 10
19.83355349529404
 20
238.97204418453816
 30
0.0
 10
21.01589926245468
 20
238.09515680044103
 30
0.0
 10
22.106601717798213
 20
237.10660171779818
 30
0.0
 10
23.09515680044106
 20
236.0158992624547
 30
0.0
 10
23.972044184538177
 20
234.83355349529404
 30
0.0
 10
24.72881896522533
 20
233.57095105238994
 30
0.0
 10
25.358192987669298
 20
232.24025148547634
 30
0.0
 10
25.85410503598314
 20
230.85427015881692
 30
0.0
 10
26.211779206048462
 20
229.4263548302419
 30
0.0
 10
26.427770900082947
 20
227.9702571049434
 30
0.0
 10
26.5
 20
226.5
 30
0.0
 10
26.5
 20
103.5
 30
0.0
 10
26.427770900082947
 20
102.02974289505659
 30
0.0
 10
26.211779206048448
 20
100.5736451697581
 30
0.0
 10
25.854105035983125
 20
99.14572984118303
 30
0.0
 10
25.358192987669298
 20
97.75974851452366
 30
0.0
 10
24.72881896522533
 20
96.42904894761006
 30
0.0
 10
23.972044184538177
 20
95.16644650470596
 30
0.0
 10
23.095156800441046
 20
93.9841007375453
 30
0.0
 10
22.106601717798213
 20
92.89339828220176
 30
0.0
 10
21.01589926245468
 20
91.90484319955897
 30
0.0
 10
19.833553495294026
 20
91.02795581546184
 30
0.0
 10
18.570951052389958
 20
90.27118103477466
 30
0.0
 10
17.24025148547635
 20
89.64180701233067
 30
0.0
 10
15.85427015881693
 20
89.14589496401686
 30
0.0
 10
14.42635483024192
 20
88.78822079395155
 30
0.0
 10
12.9702571049434
 20
88.57222909991702
 30
0.0
 10
11.5
 20
88.5
 30
0.0
 10
-11.5
 20
88.5
 30
0.0
 10
-12.970257104943407
 20
88.57222909991702
 30
0.0
 10
-14.426354830241927
 20
88.78822079395155
 30
0.0
 10
-15.854270158816938
 20
89.14589496401686
 30
0.0
 10
-17.240251485476342
 20
89.64180701233067
 30
0.0
 10
-18.570951052389965
 20
90.27118103477466
 30
0.0
 10
-19.83355349529404
 20
91.02795581546184
 30
0.0
 10
-21.01589926245468
 20
91.90484319955897
 30
0.0
 10
-22.106601717798213
 20
92.89339828220182
 30
0.0
 10
-23.09515680044106
 20
93.9841007375453
 30
0.0
 10
-23.972044184538177
 20
95.16644650470596
 30
0.0
 10
-24.72881896522533
 20
96.42904894761006
 30
0.0
 10
-25.358192987669305
 20
97.75974851452366
 30
0.0
 10
-25.85410503598313
 20
99.14572984118308
 30
0.0
 10
-26.211779206048462
 20
100.5736451697581
 30
0.0
 10
-26.427770900082955
 20
102.02974289505659
 30
0.0
 10
-26.5
 20
103.5
 30
0.0
  0
LWPOLYLINE
  8
OpenJsCad
  90
65
  70
1
 10
-55.758426728323656
 20
-252.32847000442328
 30
0.0
 10
-55.75
 20
-252.5
 30
0.0
 10
-55.758426728323656
 20
-252.67152999557672
 30
0.0
 10
-55.783625759294345
 20
-252.84140806352823
 30
0.0
 10
-55.825354412468634
 20
-253.0079981851953
 30
0.0
 10
-55.88321081810525
 20
-253.1696960066389
 30
0.0
 10
-55.95663778739038
 20
-253.3249442894455
 30
0.0
 10
-56.04492817847054
 20
-253.4722479077843
 30
0.0
 10
-56.147231706615216
 20
-253.61018824728637
 30
0.0
 10
-56.262563132923546
 20
-253.73743686707647
 30
0.0
 10
-56.38981175271362
 20
-253.8527682933848
 30
0.0
 10
-56.52775209221569
 20
-253.95507182152946
 30
0.0
 10
-56.6750557105545
 20
-254.04336221260962
 30
0.0
 10
-56.83030399336109
 20
-254.11678918189475
 30
0.0
 10
-56.992001814804695
 20
-254.17464558753136
 30
0.0
 10
-57.15859193647178
 20
-254.21637424070565
 30
0.0
 10
-57.32847000442327
 20
-254.24157327167634
 30
0.0
 10
-57.5
 20
-254.25
 30
0.0
 10
-57.67152999557673
 20
-254.24157327167634
 30
0.0
 10
-57.84140806352823
 20
-254.21637424070565
 30
0.0
 10
-58.007998185195305
 20
-254.17464558753136
 30
0.0
 10
-58.16969600663891
 20
-254.11678918189475
 30
0.0
 10
-58.3249442894455
 20
-254.04336221260962
 30
0.0
 10
-58.47224790778431
 20
-253.95507182152946
 30
0.0
 10
-58.61018824728638
 20
-253.8527682933848
 30
0.0
 10
-58.737436867076454
 20
-253.73743686707647
 30
0.0
 10
-58.85276829338479
 20
-253.61018824728637
 30
0.0
 10
-58.95507182152946
 20
-253.4722479077843
 30
0.0
 10
-59.04336221260962
 20
-253.32494428944548
 30
0.0
 10
-59.11678918189475
 20
-253.1696960066389
 30
0.0
 10
-59.174645587531366
 20
-253.0079981851953
 30
0.0
 10
-59.216374240705655
 20
-252.84140806352823
 30
0.0
 10
-59.241573271676344
 20
-252.67152999557672
 30
0.0
 10
-59.25
 20
-252.5
 30
0.0
 10
-59.241573271676344
 20
-252.32847000442328
 30
0.0
 10
-59.216374240705655
 20
-252.15859193647177
 30
0.0
 10
-59.174645587531366
 20
-251.9920018148047
 30
0.0
 10
-59.11678918189475
 20
-251.8303039933611
 30
0.0
 10
-59.04336221260962
 20
-251.67505571055452
 30
0.0
 10
-58.95507182152946
 20
-251.5277520922157
 30
0.0
 10
-58.85276829338479
 20
-251.38981175271363
 30
0.0
 10
-58.737436867076454
 20
-251.26256313292353
 30
0.0
 10
-58.61018824728638
 20
-251.1472317066152
 30
0.0
 10
-58.47224790778431
 20
-251.04492817847054
 30
0.0
 10
-58.3249442894455
 20
-250.95663778739038
 30
0.0
 10
-58.16969600663891
 20
-250.88321081810525
 30
0.0
 10
-58.007998185195305
 20
-250.82535441246864
 30
0.0
 10
-57.84140806352822
 20
-250.78362575929435
 30
0.0
 10
-57.67152999557673
 20
-250.75842672832366
 30
0.0
 10
-57.5
 20
-250.75
 30
0.0
 10
-57.32847000442327
 20
-250.75842672832366
 30
0.0
 10
-57.15859193647178
 20
-250.78362575929435
 30
0.0
 10
-56.992001814804695
 20
-250.82535441246864
 30
0.0
 10
-56.83030399336109
 20
-250.88321081810525
 30
0.0
 10
-56.6750557105545
 20
-250.95663778739038
 30
0.0
 10
-56.52775209221569
 20
-251.04492817847054
 30
0.0
 10
-56.38981175271362
 20
-251.1472317066152
 30
0.0
 10
-56.262563132923546
 20
-251.26256313292353
 30
0.0
 10
-56.14723170661521
 20
-251.38981175271363
 30
0.0
 10
-56.04492817847054
 20
-251.5277520922157
 30
0.0
 10
-55.95663778739038
 20
-251.67505571055452
 30
0.0
 10
-55.88321081810525
 20
-251.8303039933611
 30
0.0
 10
-55.825354412468634
 20
-251.9920018148047
 30
0.0
 10
-55.783625759294345
 20
-252.15859193647177
 30
0.0
 10
-55.758426728323656
 20
-252.32847000442328
 30
0.0
  0
LWPOLYLINE
  8
OpenJsCad
  90
65
  70
1
 10
59.241573271676344
 20
-252.32847000442328
 30
0.0
 10
59.25
 20
-252.5
 30
0.0
 10
59.241573271676344
 20
-252.67152999557672
 30
0.0
 10
59.21637424070565
 20
-252.84140806352823
 30
0.0
 10
59.17464558753136
 20
-253.0079981851953
 30
0.0
 10
59.116789181894745
 20
-253.1696960066389
 30
0.0
 10
59.04336221260962
 20
-253.3249442894455
 30
0.0
 10
58.95507182152946
 20
-253.4722479077843
 30
0.0
 10
58.8527682933848
 20
-253.61018824728637
 30
0.0
 10
58.73743686707647
 20
-253.73743686707647
 30
0.0
 10
58.610188247286374
 20
-253.8527682933848
 30
0.0
 10
58.47224790778429
 20
-253.95507182152946
 30
0.0
 10
58.32494428944548
 20
-254.04336221260962
 30
0.0
 10
58.1696960066389
 20
-254.11678918189475
 30
0.0
 10
58.007998185195305
 20
-254.17464558753136
 30
0.0
 10
57.841408063528235
 20
-254.21637424070565
 30
0.0
 10
57.67152999557672
 20
-254.24157327167634
 30
0.0
 10
57.5
 20
-254.25
 30
0.0
 10
57.32847000442328
 20
-254.24157327167634
 30
0.0
 10
57.158591936471765
 20
-254.21637424070565
 30
0.0
 10
56.992001814804695
 20
-254.17464558753136
 30
0.0
 10
56.8303039933611
 20
-254.11678918189475
 30
0.0
 10
56.67505571055452
 20
-254.04336221260962
 30
0.0
 10
56.52775209221571
 20
-253.95507182152946
 30
0.0
 10
56.389811752713626
 20
-253.8527682933848
 30
0.0
 10
56.26256313292353
 20
-253.73743686707647
 30
0.0
 10
56.1472317066152
 20
-253.61018824728637
 30
0.0
 10
56.04492817847054
 20
-253.4722479077843
 30
0.0
 10
55.95663778739038
 20
-253.32494428944548
 30
0.0
 10
55.883210818105255
 20
-253.1696960066389
 30
0.0
 10
55.82535441246864
 20
-253.0079981851953
 30
0.0
 10
55.78362575929435
 20
-252.84140806352823
 30
0.0
 10
55.758426728323656
 20
-252.67152999557672
 30
0.0
 10
55.75
 20
-252.5
 30
0.0
 10
55.758426728323656
 20
-252.32847000442328
 30
0.0
 10
55.78362575929435
 20
-252.15859193647177
 30
0.0
 10
55.82535441246864
 20
-251.9920018148047
 30
0.0
 10
55.883210818105255
 20
-251.8303039933611
 30
0.0
 10
55.95663778739038
 20
-251.67505571055452
 30
0.0
 10
56.04492817847054
 20
-251.5277520922157
 30
0.0
 10
56.1472317066152
 20
-251.38981175271363
 30
0.0
 10
56.26256313292353
 20
-251.26256313292353
 30
0.0
 10
56.389811752713626
 20
-251.1472317066152
 30
0.0
 10
56.52775209221571
 20
-251.04492817847054
 30
0.0
 10
56.67505571055452
 20
-250.95663778739038
 30
0.0
 10
56.8303039933611
 20
-250.88321081810525
 30
0.0
 10
56.992001814804695
 20
-250.82535441246864
 30
0.0
 10
57.158591936471765
 20
-250.78362575929435
 30
0.0
 10
57.32847000442328
 20
-250.75842672832366
 30
0.0
 10
57.5
 20
-250.75
 30
0.0
 10
57.67152999557672
 20
-250.75842672832366
 30
0.0
 10
57.841408063528235
 20
-250.78362575929435
 30
0.0
 10
58.007998185195305
 20
-250.82535441246864
 30
0.0
 10
58.1696960066389
 20
-250.88321081810525
 30
0.0
 10
58.32494428944548
 20
-250.95663778739038
 30
0.0
 10
58.47224790778429
 20
-251.04492817847054
 30
0.0
 10
58.610188247286374
 20
-251.1472317066152
 30
0.0
 10
58.73743686707647
 20
-251.26256313292353
 30
0.0
 10
58.8527682933848
 20
-251.38981175271363
 30
0.0
 10
58.95507182152946
 20
-251.5277520922157
 30
0.0
 10
59.04336221260962
 20
-251.67505571055452
 30
0.0
 10
59.116789181894745
 20
-251.8303039933611
 30
0.0
 10
59.17464558753136
 20
-251.9920018148047
 30
0.0
 10
59.21637424070565
 20
-252.15859193647177
 30
0.0
 10
59.241573271676344
 20
-252.32847000442328
 30
0.0
  0
LWPOLYLINE
  8
OpenJsCad
  90
65
  70
1
 10
-55.758426728323656
 20
252.67152999557675
 30
0.0
 10
-55.75
 20
252.5
 30
0.0
 10
-55.758426728323656
 20
252.32847000442325
 30
0.0
 10
-55.783625759294345
 20
252.1585919364718
 30
0.0
 10
-55.825354412468634
 20
251.99200181480467
 30
0.0
 10
-55.88321081810525
 20
251.8303039933611
 30
0.0
 10
-55.95663778739038
 20
251.6750557105545
 30
0.0
 10
-56.04492817847054
 20
251.52775209221568
 30
0.0
 10
-56.147231706615216
 20
251.38981175271363
 30
0.0
 10
-56.262563132923546
 20
251.26256313292356
 30
0.0
 10
-56.38981175271362
 20
251.14723170661523
 30
0.0
 10
-56.52775209221569
 20
251.0449281784705
 30
0.0
 10
-56.6750557105545
 20
250.95663778739038
 30
0.0
 10
-56.83030399336109
 20
250.88321081810523
 30
0.0
 10
-56.992001814804695
 20
250.82535441246864
 30
0.0
 10
-57.15859193647178
 20
250.7836257592943
 30
0.0
 10
-57.32847000442327
 20
250.75842672832368
 30
0.0
 10
-57.5
 20
250.75
 30
0.0
 10
-57.67152999557673
 20
250.75842672832368
 30
0.0
 10
-57.84140806352823
 20
250.7836257592943
 30
0.0
 10
-58.007998185195305
 20
250.82535441246864
 30
0.0
 10
-58.16969600663891
 20
250.88321081810523
 30
0.0
 10
-58.3249442894455
 20
250.95663778739038
 30
0.0
 10
-58.47224790778431
 20
251.0449281784705
 30
0.0
 10
-58.61018824728638
 20
251.14723170661523
 30
0.0
 10
-58.737436867076454
 20
251.26256313292356
 30
0.0
 10
-58.85276829338479
 20
251.38981175271363
 30
0.0
 10
-58.95507182152946
 20
251.52775209221568
 30
0.0
 10
-59.04336221260962
 20
251.6750557105545
 30
0.0
 10
-59.11678918189475
 20
251.8303039933611
 30
0.0
 10
-59.174645587531366
 20
251.99200181480467
 30
0.0
 10
-59.216374240705655
 20
252.1585919364718
 30
0.0
 10
-59.241573271676344
 20
252.32847000442325
 30
0.0
 10
-59.25
 20
252.5
 30
0.0
 10
-59.241573271676344
 20
252.67152999557675
 30
0.0
 10
-59.216374240705655
 20
252.8414080635282
 30
0.0
 10
-59.174645587531366
 20
253.00799818519533
 30
0.0
 10
-59.11678918189475
 20
253.1696960066389
 30
0.0
 10
-59.04336221260962
 20
253.3249442894455
 30
0.0
 10
-58.95507182152946
 20
253.47224790778432
 30
0.0
 10
-58.85276829338479
 20
253.61018824728637
 30
0.0
 10
-58.737436867076454
 20
253.73743686707644
 30
0.0
 10
-58.61018824728638
 20
253.85276829338477
 30
0.0
 10
-58.47224790778431
 20
253.9550718215295
 30
0.0
 10
-58.3249442894455
 20
254.04336221260962
 30
0.0
 10
-58.16969600663891
 20
254.11678918189477
 30
0.0
 10
-58.007998185195305
 20
254.17464558753136
 30
0.0
 10
-57.84140806352822
 20
254.2163742407057
 30
0.0
 10
-57.67152999557673
 20
254.24157327167632
 30
0.0
 10
-57.5
 20
254.25
 30
0.0
 10
-57.32847000442327
 20
254.24157327167632
 30
0.0
 10
-57.15859193647178
 20
254.2163742407057
 30
0.0
 10
-56.992001814804695
 20
254.17464558753136
 30
0.0
 10
-56.83030399336109
 20
254.11678918189477
 30
0.0
 10
-56.6750557105545
 20
254.04336221260962
 30
0.0
 10
-56.52775209221569
 20
253.9550718215295
 30
0.0
 10
-56.38981175271362
 20
253.85276829338477
 30
0.0
 10
-56.262563132923546
 20
253.73743686707644
 30
0.0
 10
-56.14723170661521
 20
253.61018824728637
 30
0.0
 10
-56.04492817847054
 20
253.47224790778432
 30
0.0
 10
-55.95663778739038
 20
253.3249442894455
 30
0.0
 10
-55.88321081810525
 20
253.1696960066389
 30
0.0
 10
-55.825354412468634
 20
253.00799818519533
 30
0.0
 10
-55.783625759294345
 20
252.8414080635282
 30
0.0
 10
-55.758426728323656
 20
252.67152999557675
 30
0.0
  0
LWPOLYLINE
  8
OpenJsCad
  90
65
  70
1
 10
59.241573271676344
 20
252.67152999557675
 30
0.0
 10
59.25
 20
252.5
 30
0.0
 10
59.241573271676344
 20
252.32847000442325
 30
0.0
 10
59.21637424070565
 20
252.1585919364718
 30
0.0
 10
59.17464558753136
 20
251.99200181480467
 30
0.0
 10
59.116789181894745
 20
251.8303039933611
 30
0.0
 10
59.04336221260962
 20
251.6750557105545
 30
0.0
 10
58.95507182152946
 20
251.52775209221568
 30
0.0
 10
58.8527682933848
 20
251.38981175271363
 30
0.0
 10
58.73743686707647
 20
251.26256313292356
 30
0.0
 10
58.610188247286374
 20
251.14723170661523
 30
0.0
 10
58.47224790778429
 20
251.0449281784705
 30
0.0
 10
58.32494428944548
 20
250.95663778739038
 30
0.0
 10
58.1696960066389
 20
250.88321081810523
 30
0.0
 10
58.007998185195305
 20
250.82535441246864
 30
0.0
 10
57.841408063528235
 20
250.7836257592943
 30
0.0
 10
57.67152999557672
 20
250.75842672832368
 30
0.0
 10
57.5
 20
250.75
 30
0.0
 10
57.32847000442328
 20
250.75842672832368
 30
0.0
 10
57.158591936471765
 20
250.7836257592943
 30
0.0
 10
56.992001814804695
 20
250.82535441246864
 30
0.0
 10
56.8303039933611
 20
250.88321081810523
 30
0.0
 10
56.67505571055452
 20
250.95663778739038
 30
0.0
 10
56.52775209221571
 20
251.0449281784705
 30
0.0
 10
56.389811752713626
 20
251.14723170661523
 30
0.0
 10
56.26256313292353
 20
251.26256313292356
 30
0.0
 10
56.1472317066152
 20
251.38981175271363
 30
0.0
 10
56.04492817847054
 20
251.52775209221568
 30
0.0
 10
55.95663778739038
 20
251.6750557105545
 30
0.0
 10
55.883210818105255
 20
251.8303039933611
 30
0.0
 10
55.82535441246864
 20
251.99200181480467
 30
0.0
 10
55.78362575929435
 20
252.1585919364718
 30
0.0
 10
55.758426728323656
 20
252.32847000442325
 30
0.0
 10
55.75
 20
252.5
 30
0.0
 10
55.758426728323656
 20
252.67152999557675
 30
0.0
 10
55.78362575929435
 20
252.8414080635282
 30
0.0
 10
55.82535441246864
 20
253.00799818519533
 30
0.0
 10
55.883210818105255
 20
253.1696960066389
 30
0.0
 10
55.95663778739038
 20
253.3249442894455
 30
0.0
 10
56.04492817847054
 20
253.47224790778432
 30
0.0
 10
56.1472317066152
 20
253.61018824728637
 30
0.0
 10
56.26256313292353
 20
253.73743686707644
 30
0.0
 10
56.389811752713626
 20
253.85276829338477
 30
0.0
 10
56.52775209221571
 20
253.9550718215295
 30
0.0
 10
56.67505571055452
 20
254.04336221260962
 30
0.0
 10
56.8303039933611
 20
254.11678918189477
 30
0.0
 10
56.992001814804695
 20
254.17464558753136
 30
0.0
 10
57.158591936471765
 20
254.2163742407057
 30
0.0
 10
57.32847000442328
 20
254.24157327167632
 30
0.0
 10
57.5
 20
254.25
 30
0.0
 10
57.67152999557672
 20
254.24157327167632
 30
0.0
 10
57.841408063528235
 20
254.2163742407057
 30
0.0
 10
58.007998185195305
 20
254.17464558753136
 30
0.0
 10
58.1696960066389
 20
254.11678918189477
 30
0.0
 10
58.32494428944548
 20
254.04336221260962
 30
0.0
 10
58.47224790778429
 20
253.9550718215295
 30
0.0
 10
58.610188247286374
 20
253.85276829338477
 30
0.0
 10
58.73743686707647
 20
253.73743686707644
 30
0.0
 10
58.8527682933848
 20
253.61018824728637
 30
0.0
 10
58.95507182152946
 20
253.47224790778432
 30
0.0
 10
59.04336221260962
 20
253.3249442894455
 30
0.0
 10
59.116789181894745
 20
253.1696960066389
 30
0.0
 10
59.17464558753136
 20
253.00799818519533
 30
0.0
 10
59.21637424070565
 20
252.8414080635282
 30
0.0
 10
59.241573271676344
 20
252.67152999557675
 30
0.0
  0
ENDSEC
  0
EOF
